<?xml version="1.0" encoding="UTF-8"?>
<svg
  xmlns="http://www.w3.org/2000/svg"
  xmlns:xlink="http://www.w3.org/1999/xlink"
  width="0"
  height="0"
>
  <defs>
    <symbol viewBox="0 0 384 512" id="xmark">
      <path
        d="M192 233.4L59.5 100.9 36.9 123.5 169.4 256 36.9 388.5l22.6 22.6L192 278.6 324.5 411.1l22.6-22.6L214.6 256 347.1 123.5l-22.6-22.6L192 233.4z"
      ></path>
    </symbol>
    <symbol viewBox="0 0 576 512" id="water">
      <path
        d="M80 78.1c9.1-8.1 22.8-8.1 31.9 0c21.5 18.6 51.2 33.9 80 33.9s58.5-15.3 80-33.9c9.1-8.1 22.8-8.1 31.9 0c21.6 18.6 51.2 33.9 80 33.9s58.5-15.3 80-33.9c9.1-8.1 22.8-8.1 31.9 0c16.9 15.1 39.3 26.8 61.3 31.8c12.9 2.9 21.1 15.7 18.2 28.7s-15.7 21.1-28.7 18.2c-28.7-6.4-52.3-20.5-66.7-30.4c-28.1 19.5-61.4 33.8-96 33.8s-67.9-14.3-96-33.8c-28.1 19.5-61.4 33.8-96 33.8s-67.9-14.3-96-33.8c-14.4 10-38 24-66.7 30.4c-12.9 2.9-25.8-5.2-28.7-18.2s5.2-25.8 18.2-28.7C41 104.8 62.8 93 80 78.1zm0 288c9.1-8.1 22.8-8.1 31.9 0c21.5 18.6 51.2 33.9 80 33.9s58.5-15.3 80-33.9c9.1-8.1 22.8-8.1 31.9 0c21.6 18.6 51.2 33.9 80 33.9s58.5-15.3 80-33.9c9.1-8.1 22.8-8.1 31.9 0c16.9 15.1 39.3 26.8 61.3 31.8c12.9 2.9 21.1 15.7 18.2 28.7s-15.7 21.1-28.7 18.2c-28.7-6.4-52.3-20.5-66.7-30.4c-28.1 19.5-61.4 33.8-96 33.8s-67.9-14.3-96-33.8c-28.1 19.5-61.4 33.8-96 33.8s-67.9-14.3-96-33.8c-14.4 10-38 24-66.7 30.4c-12.9 2.9-25.8-5.2-28.7-18.2s5.2-25.8 18.2-28.7c22.2-5 44-16.8 61.2-31.7zm31.9-144c21.5 18.6 51.2 33.9 80 33.9s58.5-15.3 80-33.9c9.1-8.1 22.8-8.1 31.9 0c21.6 18.6 51.2 33.9 80 33.9s58.5-15.3 80-33.9c9.1-8.1 22.8-8.1 31.9 0c16.9 15.1 39.3 26.8 61.3 31.8c12.9 2.9 21.1 15.7 18.2 28.7s-15.7 21.1-28.7 18.2c-28.7-6.4-52.3-20.5-66.7-30.4c-28.1 19.5-61.4 33.8-96 33.8s-67.9-14.3-96-33.8c-28.1 19.5-61.4 33.8-96 33.8s-67.9-14.3-96-33.8c-14.4 10-38 24-66.7 30.4c-12.9 2.9-25.8-5.2-28.7-18.2s5.2-25.8 18.2-28.7c22.2-5 44-16.8 61.2-31.7c9.1-8.1 22.8-8.1 31.9 0z"
      ></path>
    </symbol>
    <symbol viewBox="0 0 512 512" id="magnifying-glass">
      <path
        d="M384 208A176 176 0 1 0 32 208a176 176 0 1 0 352 0zM343.3 366C307 397.2 259.7 416 208 416C93.1 416 0 322.9 0 208S93.1 0 208 0S416 93.1 416 208c0 51.7-18.8 99-50 135.3L510.5 487.9l-22.6 22.6L343.3 366z"
      ></path>
    </symbol>
    <symbol viewBox="0 0 320 512" id="caret-down">
      <path
        d="M288 224L32 224l0 1.7L160 341 288 225.8l0-1.7zm0-32l32 0 0 32 0 16L160 384 0 240l0-16 0-32 32 0 256 0z"
      ></path>
    </symbol>
    <symbol viewBox="0 0 448 512" id="bars">
      <path
        d="M0 88C0 74.7 10.7 64 24 64l400 0c13.3 0 24 10.7 24 24s-10.7 24-24 24L24 112C10.7 112 0 101.3 0 88zM0 248c0-13.3 10.7-24 24-24l400 0c13.3 0 24 10.7 24 24s-10.7 24-24 24L24 272c-13.3 0-24-10.7-24-24zM448 408c0 13.3-10.7 24-24 24L24 432c-13.3 0-24-10.7-24-24s10.7-24 24-24l400 0c13.3 0 24 10.7 24 24z"
      ></path>
    </symbol>
    <symbol viewBox="0 0 448 512" id="bars-filter">
      <path
        d="M0 64l448 0 0 32L0 96 0 64zM64 224l320 0 0 32L64 256l0-32zM288 384l0 32-128 0 0-32 128 0z"
      ></path>
    </symbol>
    <symbol viewBox="0 0 320 512" id="angle-right">
      <path
        d="M278.6 256l-11.3 11.3-160 160L96 438.6 73.4 416l11.3-11.3L233.4 256 84.7 107.3 73.4 96 96 73.4l11.3 11.3 160 160L278.6 256z"
      ></path>
    </symbol>
  </defs>
</svg>
